<svg width="285" height="268" viewBox="0 0 285 268" fill="none" xmlns="http://www.w3.org/2000/svg">
<path d="M78.7734 262H75.5508L71.2617 254.992L66.9375 262H63.9375L69.6211 253.117L64.3008 244.867H67.418L71.3789 251.348L75.3398 244.867H78.3633L73.0078 253.164L78.7734 262ZM85.8984 256.738V254.395H91.9219V256.738H85.8984ZM113.906 262H110.684L106.395 254.992L102.07 262H99.0703L104.754 253.117L99.4336 244.867H102.551L106.512 251.348L110.473 244.867H113.496L108.141 253.164L113.906 262ZM113.953 249.039H116.953L119.59 256.387C119.988 257.434 120.254 258.418 120.387 259.34H120.48C120.551 258.91 120.68 258.391 120.867 257.781C121.055 257.164 122.047 254.25 123.844 249.039H126.82L121.277 263.723C120.27 266.418 118.59 267.766 116.238 267.766C115.629 267.766 115.035 267.699 114.457 267.566V265.387C114.871 265.48 115.344 265.527 115.875 265.527C117.203 265.527 118.137 264.758 118.676 263.219L119.156 262L113.953 249.039ZM141.223 266.582H138.656V262H129.773V266.582H127.23V259.867H128.285C129.207 258.547 129.938 256.953 130.477 255.086C131.023 253.211 131.348 251.195 131.449 249.039H139.324V259.867H141.223V266.582ZM136.617 259.867V251.148H133.828C133.68 252.758 133.367 254.344 132.891 255.906C132.422 257.469 131.848 258.789 131.168 259.867H136.617ZM155.121 255.496C155.121 257.613 154.578 259.266 153.492 260.453C152.406 261.641 150.895 262.234 148.957 262.234C147.746 262.234 146.676 261.961 145.746 261.414C144.816 260.867 144.102 260.082 143.602 259.059C143.102 258.035 142.852 256.848 142.852 255.496C142.852 253.395 143.391 251.754 144.469 250.574C145.547 249.395 147.066 248.805 149.027 248.805C150.902 248.805 152.387 249.41 153.48 250.621C154.574 251.824 155.121 253.449 155.121 255.496ZM145.688 255.496C145.688 258.488 146.793 259.984 149.004 259.984C151.191 259.984 152.285 258.488 152.285 255.496C152.285 252.535 151.184 251.055 148.98 251.055C147.824 251.055 146.984 251.438 146.461 252.203C145.945 252.969 145.688 254.066 145.688 255.496ZM164.684 255.332V249.039H167.25V255.332L172.242 249.039H175.148L170.051 255.309L175.605 262H172.57L167.25 255.426V262H164.684V255.426L159.375 262H156.352L161.895 255.309L156.809 249.039H159.715L164.684 255.332ZM180.363 249.039V254.242H186.469V249.039H189.223V262H186.469V256.41H180.363V262H177.609V249.039H180.363ZM195.809 249.039V255.684C195.809 256.457 195.746 257.594 195.621 259.094L202.125 249.039H205.488V262H202.84V255.473C202.84 255.113 202.859 254.531 202.898 253.727C202.945 252.922 202.984 252.336 203.016 251.969L196.535 262H193.172V249.039H195.809ZM217.453 249.039H220.477L215.121 255.285L220.934 262H217.77L212.168 255.426V262H209.414V249.039H212.168V255.332L217.453 249.039Z" fill="#666666"/>
<path d="M64.7353 46.8043C70.8075 46.8043 75.7486 41.8632 75.7486 35.7909C75.7486 29.7186 70.8075 24.7776 64.7353 24.7776C58.663 24.7776 53.7219 29.7186 53.7219 35.7909C53.7219 41.8632 58.663 46.8043 64.7353 46.8043ZM64.7353 31.0709C67.3383 31.0709 69.4553 33.1878 69.4553 35.7909C69.4553 38.394 67.3383 40.5109 64.7353 40.5109C62.1322 40.5109 60.0153 38.394 60.0153 35.7909C60.0153 33.1878 62.133 31.0709 64.7353 31.0709Z" fill="#B6B6B6"/>
<path d="M207.909 89.2843C207.909 95.3566 212.85 100.298 218.922 100.298C224.994 100.298 229.935 95.3566 229.935 89.2843C229.935 83.212 224.994 78.271 218.922 78.271C212.85 78.271 207.909 83.212 207.909 89.2843ZM218.922 84.5643C221.525 84.5643 223.642 86.6812 223.642 89.2843C223.642 91.8874 221.525 94.0043 218.922 94.0043C216.319 94.0043 214.202 91.8874 214.202 89.2843C214.202 86.6812 216.32 84.5643 218.922 84.5643Z" fill="#B6B6B6"/>
<path d="M231.509 55.0871C233.476 55.0871 235.071 53.4919 235.071 51.5242C235.071 49.5566 233.476 47.9614 231.509 47.9614C229.541 47.9614 227.946 49.5566 227.946 51.5242C227.946 53.4919 229.541 55.0871 231.509 55.0871Z" fill="#B6B6B6"/>
<path d="M80.4686 67.6737C82.4363 67.6737 84.0314 66.0786 84.0314 64.1109C84.0314 62.1432 82.4363 60.5481 80.4686 60.5481C78.5009 60.5481 76.9058 62.1432 76.9058 64.1109C76.9058 66.0786 78.5009 67.6737 80.4686 67.6737Z" fill="#B6B6B6"/>
<path d="M196.757 40.6494C197.371 41.2637 198.177 41.5713 198.981 41.5713C199.786 41.5713 200.592 41.2637 201.206 40.6494L204.762 37.0936L208.318 40.6494C208.932 41.2637 209.738 41.5713 210.542 41.5713C211.347 41.5713 212.153 41.2637 212.767 40.6494C213.996 39.4206 213.996 37.4287 212.767 36.2L209.211 32.6442L212.767 29.0885C213.996 27.8597 213.996 25.8679 212.767 24.6391C211.538 23.4103 209.546 23.4103 208.318 24.6391L204.762 28.1948L201.206 24.6391C199.977 23.4103 197.986 23.4103 196.757 24.6391C195.528 25.8679 195.528 27.8597 196.757 29.0885L200.313 32.6442L196.757 36.2C195.528 37.4287 195.528 39.4198 196.757 40.6494Z" fill="#B6B6B6"/>
<path d="M52.0102 106.729C52.6246 107.344 53.4301 107.651 54.2349 107.651C55.0397 107.651 55.8452 107.344 56.4596 106.729L60.0153 103.174L63.5711 106.729C64.1854 107.344 64.991 107.651 65.7958 107.651C66.6005 107.651 67.4061 107.344 68.0204 106.729C69.2492 105.501 69.2492 103.509 68.0204 102.28L64.4647 98.7243L68.0204 95.1686C69.2492 93.9398 69.2492 91.948 68.0204 90.7192C66.7917 89.4904 64.7998 89.4904 63.5711 90.7192L60.0153 94.2749L56.4596 90.7192C55.2308 89.4904 53.239 89.4904 52.0102 90.7192C50.7814 91.948 50.7814 93.9398 52.0102 95.1686L55.5659 98.7243L52.0102 102.28C50.7814 103.509 50.7814 105.5 52.0102 106.729Z" fill="#B6B6B6"/>
<path d="M159.135 108.164C160.873 108.164 162.282 106.755 162.282 105.018C162.282 103.28 160.873 101.871 159.135 101.871C157.398 101.871 155.989 103.28 155.989 105.018C155.989 106.755 157.398 108.164 159.135 108.164Z" fill="#B6B6B6"/>
<path d="M127.669 108.164C129.406 108.164 130.815 106.755 130.815 105.018C130.815 103.28 129.406 101.871 127.669 101.871C125.931 101.871 124.522 103.28 124.522 105.018C124.522 106.755 125.931 108.164 127.669 108.164Z" fill="#B6B6B6"/>
<path d="M230.249 155.994C226.258 152.998 225.923 148.158 225.536 142.556C224.93 133.823 224.177 122.957 206.726 120.775C197.833 119.672 189.017 122.521 181.888 128.811C175.963 134.044 171.779 141.181 169.829 148.901L157.563 143.327V140.789C157.563 140.76 157.547 140.735 157.546 140.706C169.589 134.952 178.745 124.23 182.46 111.305C184.553 111.36 186.479 110.797 188.381 109.612C191.301 107.79 193.277 104.827 193.664 101.681C194.054 98.5275 193.077 95.3659 190.991 93.0028C189.556 91.383 187.694 90.2369 185.647 89.6752C185.641 89.1222 185.619 87.1114 185.611 86.9022C185.769 86.5246 185.884 72.8767 185.884 72.8767C186.612 72.7902 187.322 72.658 187.992 72.4259C190.352 71.6117 192.153 69.9401 193.339 67.4605H193.342C197.436 58.9063 190.121 46.7877 176.223 37.4578C177.197 34.9924 177.299 32.3036 176.411 29.7831C175.43 27.0085 173.433 24.7807 170.781 23.511C168.129 22.2358 165.142 22.0761 162.362 23.0532C159.838 23.9445 157.806 25.7082 156.497 28.0099C140.517 23.0296 126.489 24.9254 122.389 33.4796C121.467 35.407 121.268 37.4208 121.715 39.371C108.248 45.5282 100.869 57.1693 100.925 72.3614L100.965 77.5574C100.996 80.4979 101.074 86.007 101.132 86.2532C101.131 86.2988 101.164 88.8995 101.164 89.6681C99.2716 90.181 97.5473 91.1982 96.1462 92.6488C94.0537 94.8216 92.9594 97.6795 93.0672 100.696C93.1836 104.064 95.0952 107.315 98.1742 109.393C100.12 110.705 102.071 111.347 104.191 111.313C107.482 123.337 115.464 133.428 126.113 139.555C126.112 139.581 126.098 139.603 126.098 139.63V143.327L101.02 154.724C89.4934 159.963 82.0444 171.671 82.0444 184.546V210.429C82.0444 212.169 83.4518 213.576 85.1911 213.576H198.471C200.21 213.576 201.618 212.169 201.618 210.429V195.941C203.168 196.136 204.736 196.269 206.338 196.269C220.237 196.269 234.974 187.275 238.523 176.63C239.959 172.318 240.795 163.904 230.249 155.994ZM164.452 28.9909C165.644 28.5732 166.923 28.6464 168.056 29.1844C169.949 30.093 170.939 32.1014 170.674 34.0744C169.386 33.3656 168.066 32.6757 166.698 32.0204C165.342 31.3714 163.99 30.779 162.642 30.2244C163.151 29.6903 163.737 29.2419 164.452 28.9909ZM128.062 36.1968C129.479 33.2436 133.901 31.5256 140.102 31.5256C146.583 31.5256 155.009 33.4002 163.981 37.6962C181.54 46.1096 190.553 58.7025 187.662 64.7441C187.084 65.9517 186.435 66.3049 185.935 66.4803C182.272 67.7343 173.585 63.4351 164.366 58.8874C162.101 57.7688 159.726 56.5951 157.243 55.4056C154.806 54.2382 152.391 53.1164 150.049 52.0285C139.886 47.3053 129.383 42.4193 127.893 38.2681C127.648 37.5821 127.696 36.9614 128.062 36.1968ZM124.913 44.8202C129.327 49.327 137.566 53.166 147.394 57.7349C149.717 58.8135 152.11 59.9258 154.526 61.0846C156.984 62.2614 159.338 63.4233 161.581 64.5294C168.723 68.0568 174.654 70.9777 179.589 72.267V84.1654C170.173 91.2454 159.526 93.9279 149.462 91.7276C140.439 89.7578 132.958 84.0395 128.938 76.0407C128.48 75.1313 127.61 74.498 126.605 74.3446C125.594 74.1818 124.577 74.5287 123.87 75.2603C119.811 79.4391 113.883 81.9501 107.292 82.3615C107.289 80.8433 107.27 79.1905 107.255 77.4968L107.215 72.337C107.156 56.1207 116.618 48.4428 124.913 44.8202ZM109.646 107.089C109.465 106.207 108.915 105.445 108.134 104.993C107.354 104.545 106.416 104.458 105.559 104.738C104.343 105.153 103.218 105.209 101.694 104.176C100.299 103.236 99.4014 101.816 99.3519 100.473C99.3055 99.1765 99.7759 97.9501 100.673 97.0187C101.571 96.0904 102.775 95.5775 104.069 95.5775C104.92 95.5775 105.768 95.2149 106.361 94.6068C107.235 93.7084 107.505 92.9375 107.451 88.6431C114.182 88.2655 120.427 86.0699 125.321 82.3521C130.468 90.2219 138.584 95.7962 148.119 97.8762C150.872 98.4788 153.653 98.7769 156.44 98.7769C164.267 98.7746 172.115 96.3917 179.421 91.855C179.541 93.2931 179.828 93.9814 180.464 94.6249C181.054 95.2243 181.893 95.5775 182.735 95.5775C184.088 95.5775 185.378 96.1581 186.272 97.1721C187.182 98.1987 187.588 99.5258 187.418 100.912C187.259 102.19 186.374 103.444 185.052 104.271C183.724 105.098 182.6 105.224 181.177 104.723C180.329 104.412 179.386 104.501 178.599 104.937C177.809 105.377 177.247 106.135 177.053 107.018C173.989 121.086 163.591 132.578 149.913 137.01L148.524 137.464C144.612 138.733 140.614 138.78 136.97 137.603C123.057 133.126 112.587 121.433 109.646 107.089ZM135.041 143.595C137.425 144.363 139.905 144.744 142.422 144.744C145.093 144.744 147.8 144.314 150.467 143.45L151.27 143.188V144.351C151.27 149.556 147.035 153.791 141.83 153.791C136.624 153.791 132.39 149.556 132.39 144.351V142.552C133.274 142.898 134.129 143.301 135.041 143.595ZM195.322 207.284H176.442V191.551C176.442 189.812 175.035 188.404 173.295 188.404C171.556 188.404 170.149 189.812 170.149 191.551V207.284H110.362V191.551C110.362 189.812 108.955 188.404 107.215 188.404C105.476 188.404 104.069 189.812 104.069 191.551V207.284H88.3354V184.548C88.3354 174.134 94.3369 164.675 103.623 160.453L127.118 149.776C129.339 155.774 135.068 160.084 141.829 160.084C148.59 160.084 154.319 155.774 156.539 149.775L168.75 155.323C168.662 156.384 168.575 157.445 168.575 158.511C168.575 175.502 179.858 189.897 195.322 194.623V207.284ZM232.55 174.641C229.874 182.667 217.379 189.978 206.335 189.978C188.985 189.978 174.869 175.861 174.869 158.511C174.869 149.05 179.051 139.711 186.054 133.531C191.008 129.158 196.929 126.835 202.989 126.835C203.972 126.835 204.959 126.896 205.945 127.019C218.258 128.559 218.677 134.612 219.257 142.989C219.688 149.231 220.176 156.304 226.476 161.027C232.108 165.253 234.152 169.835 232.55 174.641Z" fill="#B6B6B6"/>
<path d="M218.922 161.787C213.788 161.787 209.611 165.963 209.611 171.098C209.611 176.229 213.788 180.405 218.922 180.405C224.057 180.405 228.233 176.229 228.233 171.098C228.233 165.963 224.057 161.787 218.922 161.787ZM218.922 174.112C217.26 174.112 215.904 172.76 215.904 171.098C215.904 169.435 217.26 168.08 218.922 168.08C220.584 168.08 221.94 169.435 221.94 171.098C221.94 172.76 220.584 174.112 218.922 174.112Z" fill="#B6B6B6"/>
<path d="M200.042 131.396C195.501 131.396 191.806 135.089 191.806 139.631C191.806 144.173 195.5 147.867 200.042 147.867C204.584 147.867 208.278 144.173 208.278 139.631C208.278 135.089 204.584 131.396 200.042 131.396ZM200.042 141.573C198.973 141.573 198.1 140.701 198.1 139.631C198.1 138.561 198.972 137.689 200.042 137.689C201.112 137.689 201.984 138.561 201.984 139.631C201.984 140.701 201.112 141.573 200.042 141.573Z" fill="#B6B6B6"/>
<path d="M194.118 156.938C194.118 152.396 190.424 148.702 185.882 148.702C181.34 148.702 177.646 152.395 177.646 156.938C177.646 161.48 181.34 165.173 185.882 165.173C190.424 165.173 194.118 161.48 194.118 156.938ZM185.882 158.88C184.813 158.88 183.94 158.007 183.94 156.938C183.94 155.868 184.812 154.995 185.882 154.995C186.952 154.995 187.824 155.868 187.824 156.938C187.824 158.007 186.952 158.88 185.882 158.88Z" fill="#B6B6B6"/>
<path d="M196.895 169.155C192.354 169.155 188.66 172.849 188.66 177.391C188.66 181.933 192.353 185.626 196.895 185.626C201.437 185.626 205.131 181.933 205.131 177.391C205.131 172.849 201.437 169.155 196.895 169.155ZM196.895 179.333C195.826 179.333 194.953 178.461 194.953 177.391C194.953 176.321 195.825 175.449 196.895 175.449C197.965 175.449 198.838 176.321 198.838 177.391C198.838 178.461 197.965 179.333 196.895 179.333Z" fill="#B6B6B6"/>
<path d="M73.3028 136.131C72.7191 135.554 72.126 134.967 71.5486 134.361C71.5478 134.36 71.547 134.36 71.547 134.359C71.5462 134.359 71.5462 134.359 71.5462 134.358C69.1343 131.835 67.5271 129.536 67.5271 126.528C67.5271 122.53 65.4527 121.433 64.2145 121.136C59.3073 119.894 53.5607 129.525 50.5737 135.348C48.7793 138.847 46.6372 143.746 46.6372 147.209C46.6372 153.315 50.0049 158.599 54.9444 161.459L53.1241 201.882C52.9762 205.148 54.12 208.308 56.2613 210.545C58.1296 212.502 60.5817 213.578 63.1627 213.578C65.7438 213.578 68.1958 212.502 70.0641 210.545C72.2062 208.308 73.3493 205.149 73.2014 201.882L71.381 161.459C76.3205 158.598 79.689 153.314 79.689 147.209C79.6882 142.455 76.2953 139.094 73.3028 136.131ZM61.5642 129.622C62.1479 132.256 63.4294 134.447 64.9138 136.333C63.8015 137.16 62.7041 137.596 61.6319 137.639C60.1875 137.633 58.6205 136.966 57.3422 136.041C58.8659 133.334 60.363 131.15 61.5642 129.622ZM66.9143 202.165C66.9851 203.722 66.4746 205.195 65.5164 206.196C65.0428 206.694 64.2475 207.284 63.1627 207.284C62.0779 207.284 61.2818 206.694 60.809 206.196C59.8501 205.195 59.3403 203.722 59.4111 202.165L61.1504 163.531C61.8175 163.613 62.4736 163.735 63.1627 163.735C63.8518 163.735 64.5079 163.614 65.175 163.531L66.9143 202.165ZM63.1619 157.442C57.52 157.442 52.929 152.851 52.929 147.209C52.929 146.317 53.3962 144.42 54.5495 141.686C56.8151 143.136 59.12 143.936 61.447 143.936C61.5886 143.936 61.7294 143.932 61.8742 143.926C64.4513 143.827 66.9088 142.815 69.2161 140.941C71.4904 143.2 73.3949 145.181 73.3949 147.208C73.3949 152.851 68.8039 157.442 63.1619 157.442Z" fill="#B6B6B6"/>
</svg>
